<svg width="45" height="46" viewBox="0 0 45 46" fill="none" xmlns="http://www.w3.org/2000/svg">
<path d="M33.6273 10.2821H35.4956V12.1504C35.4956 12.6458 35.6924 13.121 36.0428 13.4714C36.3931 13.8218 36.8683 14.0186 37.3638 14.0186C37.8593 14.0186 38.3345 13.8218 38.6849 13.4714C39.0352 13.121 39.2321 12.6458 39.2321 12.1504V10.2821H41.1003C41.5958 10.2821 42.071 10.0853 42.4214 9.73491C42.7717 9.38455 42.9685 8.90936 42.9685 8.41387C42.9685 7.91838 42.7717 7.44318 42.4214 7.09282C42.071 6.74246 41.5958 6.54562 41.1003 6.54562H39.2321V4.67738C39.2321 4.18189 39.0352 3.7067 38.6849 3.35633C38.3345 3.00597 37.8593 2.80914 37.3638 2.80914C36.8683 2.80914 36.3931 3.00597 36.0428 3.35633C35.6924 3.7067 35.4956 4.18189 35.4956 4.67738V6.54562H33.6273C33.1318 6.54562 32.6566 6.74246 32.3063 7.09282C31.9559 7.44318 31.7591 7.91838 31.7591 8.41387C31.7591 8.90936 31.9559 9.38455 32.3063 9.73491C32.6566 10.0853 33.1318 10.2821 33.6273 10.2821ZM23.352 12.1504H21.4837C19.9973 12.1504 18.5717 12.7408 17.5206 13.7919C16.4695 14.843 15.879 16.2686 15.879 17.7551V28.9645C15.879 30.451 16.4695 31.8766 17.5206 32.9277C18.5717 33.9788 19.9973 34.5693 21.4837 34.5693H23.352C24.8385 34.5693 26.264 33.9788 27.3151 32.9277C28.3662 31.8766 28.9567 30.451 28.9567 28.9645V17.7551C28.9567 16.2686 28.3662 14.843 27.3151 13.7919C26.264 12.7408 24.8385 12.1504 23.352 12.1504ZM25.2202 28.9645C25.2202 29.46 25.0234 29.9352 24.673 30.2856C24.3227 30.636 23.8475 30.8328 23.352 30.8328H21.4837C20.9883 30.8328 20.5131 30.636 20.1627 30.2856C19.8123 29.9352 19.6155 29.46 19.6155 28.9645V17.7551C19.6155 17.2596 19.8123 16.7844 20.1627 16.434C20.5131 16.0837 20.9883 15.8868 21.4837 15.8868H23.352C23.8475 15.8868 24.3227 16.0837 24.673 16.434C25.0234 16.7844 25.2202 17.2596 25.2202 17.7551V28.9645ZM40.353 17.7551C40.1126 17.8041 39.8841 17.9 39.6807 18.0374C39.4773 18.1747 39.303 18.3507 39.1677 18.5555C39.0324 18.7602 38.9387 18.9896 38.892 19.2305C38.8454 19.4714 38.8467 19.7192 38.8958 19.9596C39.6252 23.5022 39.1929 27.1855 37.663 30.4629C36.133 33.7403 33.5871 36.437 30.403 38.1527C27.2189 39.8684 23.5665 40.5116 19.9879 39.9869C16.4092 39.4622 13.0952 37.7976 10.5376 35.24C7.98012 32.6825 6.31545 29.3685 5.79076 25.7898C5.26606 22.2112 5.9093 18.5588 7.62499 15.3747C9.34069 12.1906 12.0374 9.64466 15.3148 8.11473C18.5921 6.5848 22.2755 6.15247 25.8181 6.88191C26.3136 6.981 26.8281 6.87921 27.2486 6.59892C27.669 6.31863 27.9609 5.8828 28.06 5.38731C28.1591 4.89182 28.0573 4.37726 27.777 3.95683C27.4967 3.53639 27.0609 3.24452 26.5654 3.14542C25.1982 2.89069 23.8083 2.77799 22.4179 2.80914C18.3533 2.80914 14.3801 4.01441 11.0005 6.27255C7.62099 8.53069 4.98696 11.7403 3.43152 15.4954C1.87609 19.2506 1.46912 23.3826 2.26207 27.369C3.05502 31.3555 5.01229 35.0173 7.88635 37.8913C10.7604 40.7654 14.4222 42.7227 18.4086 43.5156C22.3951 44.3086 26.5271 43.9016 30.2823 42.3462C34.0374 40.7907 37.247 38.1567 39.5051 34.7772C41.7633 31.3976 42.9685 27.4244 42.9685 23.3598C42.9725 21.9793 42.8348 20.6021 42.5575 19.2497C42.5128 19.0059 42.42 18.7734 42.2845 18.5658C42.149 18.3582 41.9735 18.1797 41.7684 18.0406C41.5632 17.9015 41.3324 17.8046 41.0894 17.7556C40.8464 17.7066 40.5961 17.7064 40.353 17.7551Z" fill="#52005D"/>
</svg>
