<svg width="46" height="46" viewBox="0 0 46 46" fill="none" xmlns="http://www.w3.org/2000/svg">
<path d="M39.7404 14.5593C38.2254 11.7279 36.0135 9.32946 33.3137 7.59071C30.8704 6.01892 28.0943 5.03858 25.2058 4.72759C22.3173 4.4166 19.3961 4.78353 16.6742 5.79922C13.9524 6.8149 11.5049 8.45136 9.5263 10.5786C7.54767 12.7058 6.09239 15.2651 5.27609 18.0533C4.45979 20.8414 4.30497 23.7815 4.82393 26.6399C5.34288 29.4984 6.52131 32.1964 8.26559 34.5197C10.0099 36.8429 12.2719 38.7274 14.872 40.0233C17.4721 41.3193 20.3387 41.991 23.2438 41.9851H23.7856C26.9599 41.8914 30.0579 40.9901 32.787 39.3664C35.5161 37.7427 37.7863 35.4501 39.3832 32.7051C40.98 29.9602 41.8508 26.8535 41.9133 23.6785C41.9758 20.5035 41.228 17.3649 39.7404 14.5593ZM21.3756 38.1178C17.7851 37.6397 14.4904 35.8739 12.1042 33.1488C9.7179 30.4238 8.40248 26.9248 8.40248 23.3026C8.40248 19.6804 9.7179 16.1815 12.1042 13.4564C14.4904 10.7314 17.7851 8.96559 21.3756 8.48747V38.1178ZM25.1121 8.48747C26.7272 8.69407 28.2982 9.16095 29.764 9.86997L25.1121 17.9221V8.48747ZM25.1121 25.3017L32.9027 11.9064C34.0513 12.8927 35.0462 14.045 35.8545 15.3252L25.1121 33.9329V25.3017ZM27.2606 37.5947L37.704 19.5662C38.0198 20.7868 38.183 22.0418 38.1898 23.3026C38.1875 26.5646 37.118 29.7362 35.1447 32.3336C33.1714 34.931 30.4025 36.8115 27.2606 37.6881V37.5947Z" fill="#52005D"/>
</svg>
