<svg width="45" height="46" viewBox="0 0 45 46" fill="none" xmlns="http://www.w3.org/2000/svg">
<path d="M19.6995 18.3997H17.8312V16.5314C17.8312 16.036 17.6344 15.5608 17.284 15.2104C16.9337 14.86 16.4585 14.6632 15.963 14.6632C15.4675 14.6632 14.9923 14.86 14.6419 15.2104C14.2916 15.5608 14.0948 16.036 14.0948 16.5314V18.3997H12.2265C11.731 18.3997 11.2558 18.5965 10.9055 18.9469C10.5551 19.2972 10.3583 19.7724 10.3583 20.2679C10.3583 20.7634 10.5551 21.2386 10.9055 21.589C11.2558 21.9393 11.731 22.1362 12.2265 22.1362H14.0948V24.0044C14.0948 24.4999 14.2916 24.9751 14.6419 25.3255C14.9923 25.6758 15.4675 25.8727 15.963 25.8727C16.4585 25.8727 16.9337 25.6758 17.284 25.3255C17.6344 24.9751 17.8312 24.4999 17.8312 24.0044V22.1362H19.6995C20.195 22.1362 20.6702 21.9393 21.0205 21.589C21.3709 21.2386 21.5677 20.7634 21.5677 20.2679C21.5677 19.7724 21.3709 19.2972 21.0205 18.9469C20.6702 18.5965 20.195 18.3997 19.6995 18.3997ZM42.9217 22.4164L42.8097 22.2109C42.7775 22.1185 42.7335 22.0306 42.6789 21.9493L38.1951 15.971C37.673 15.2749 36.9961 14.7099 36.2178 14.3208C35.4396 13.9317 34.5814 13.7291 33.7113 13.7291H29.9748V11.8608C29.9748 10.3744 29.3843 8.94878 28.3332 7.89769C27.2821 6.8466 25.8566 6.2561 24.3701 6.2561H7.5559C6.06944 6.2561 4.64385 6.8466 3.59276 7.89769C2.54167 8.94878 1.95117 10.3744 1.95117 11.8608V32.4115C1.95117 32.907 2.148 33.3822 2.49837 33.7326C2.84873 34.0829 3.32393 34.2798 3.81942 34.2798H5.68766C5.68766 35.7662 6.27816 37.1918 7.32925 38.2429C8.38034 39.294 9.80592 39.8845 11.2924 39.8845C12.7789 39.8845 14.2044 39.294 15.2555 38.2429C16.3066 37.1918 16.8971 35.7662 16.8971 34.2798H28.1066C28.1066 35.7662 28.6971 37.1918 29.7482 38.2429C30.7993 39.294 32.2248 39.8845 33.7113 39.8845C35.1978 39.8845 36.6234 39.294 37.6745 38.2429C38.7255 37.1918 39.316 35.7662 39.316 34.2798H41.1843C41.6798 34.2798 42.155 34.0829 42.5053 33.7326C42.8557 33.3822 43.0525 32.907 43.0525 32.4115V23.0703C43.0485 22.8463 43.0042 22.6248 42.9217 22.4164ZM11.2924 36.148C10.9229 36.148 10.5617 36.0384 10.2544 35.8331C9.94722 35.6279 9.70776 35.3361 9.56636 34.9947C9.42495 34.6533 9.38796 34.2777 9.46004 33.9153C9.53213 33.5529 9.71006 33.22 9.97134 32.9587C10.2326 32.6974 10.5655 32.5195 10.9279 32.4474C11.2903 32.3753 11.666 32.4123 12.0073 32.5537C12.3487 32.6951 12.6405 32.9346 12.8458 33.2418C13.0511 33.549 13.1606 33.9102 13.1606 34.2798C13.1606 34.7752 12.9638 35.2504 12.6134 35.6008C12.2631 35.9512 11.7879 36.148 11.2924 36.148ZM26.2383 30.5433H15.4399C14.9146 29.9653 14.2743 29.5035 13.56 29.1875C12.8458 28.8715 12.0734 28.7083 11.2924 28.7083C10.5114 28.7083 9.73898 28.8715 9.02475 29.1875C8.31051 29.5035 7.6702 29.9653 7.14489 30.5433H5.68766V11.8608C5.68766 11.3653 5.88449 10.8902 6.23485 10.5398C6.58522 10.1894 7.06041 9.99259 7.5559 9.99259H24.3701C24.8656 9.99259 25.3408 10.1894 25.6911 10.5398C26.0415 10.8902 26.2383 11.3653 26.2383 11.8608V30.5433ZM29.9748 17.4656H33.7113C34.0013 17.4656 34.2874 17.5331 34.5468 17.6628C34.8062 17.7925 35.0319 17.9808 35.2059 18.2129L37.4478 21.2021H29.9748V17.4656ZM33.7113 36.148C33.3418 36.148 32.9806 36.0384 32.6734 35.8331C32.3661 35.6279 32.1267 35.3361 31.9853 34.9947C31.8439 34.6533 31.8069 34.2777 31.879 33.9153C31.951 33.5529 32.129 33.22 32.3903 32.9587C32.6515 32.6974 32.9844 32.5195 33.3468 32.4474C33.7092 32.3753 34.0849 32.4123 34.4263 32.5537C34.7676 32.6951 35.0594 32.9346 35.2647 33.2418C35.47 33.549 35.5796 33.9102 35.5796 34.2798C35.5796 34.7752 35.3827 35.2504 35.0324 35.6008C34.682 35.9512 34.2068 36.148 33.7113 36.148ZM39.316 30.5433H37.8588C36.8647 29.4486 35.4782 28.7911 34.0015 28.7141C32.5247 28.6371 31.0774 29.1469 29.9748 30.1323V24.9385H39.316V30.5433Z" fill="#52005D"/>
</svg>
