<svg width="46" height="46" viewBox="0 0 46 46" fill="none" xmlns="http://www.w3.org/2000/svg">
<path d="M36.3479 24.9385H32.6114C32.1159 24.9385 31.6407 25.1353 31.2903 25.4857C30.94 25.8361 30.7431 26.3112 30.7431 26.8067C30.7431 27.3022 30.94 27.7774 31.2903 28.1278C31.6407 28.4781 32.1159 28.675 32.6114 28.675H34.3115C33.9221 30.9663 32.8302 33.0799 31.1867 34.7233C29.5433 36.3667 27.4297 37.4587 25.1384 37.8481V21.202H27.0067C27.5021 21.202 27.9773 21.0052 28.3277 20.6548C28.6781 20.3044 28.8749 19.8293 28.8749 19.3338C28.8749 18.8383 28.6781 18.3631 28.3277 18.0127C27.9773 17.6624 27.5021 17.4655 27.0067 17.4655H25.1384V15.261C26.3849 14.8203 27.4355 13.9531 28.1045 12.8127C28.7735 11.6723 29.0178 10.3321 28.7942 9.02903C28.5706 7.72594 27.8936 6.54384 26.8827 5.69165C25.8719 4.83947 24.5923 4.37207 23.2702 4.37207C21.948 4.37207 20.6685 4.83947 19.6576 5.69165C18.6468 6.54384 17.9697 7.72594 17.7462 9.02903C17.5226 10.3321 17.7669 11.6723 18.4358 12.8127C19.1048 13.9531 20.1554 14.8203 21.4019 15.261V17.4655H19.5337C19.0382 17.4655 18.563 17.6624 18.2126 18.0127C17.8623 18.3631 17.6654 18.8383 17.6654 19.3338C17.6654 19.8293 17.8623 20.3044 18.2126 20.6548C18.563 21.0052 19.0382 21.202 19.5337 21.202H21.4019V37.8481C19.1106 37.4587 16.997 36.3667 15.3536 34.7233C13.7102 33.0799 12.6182 30.9663 12.2288 28.675H13.9289C14.4244 28.675 14.8996 28.4781 15.25 28.1278C15.6004 27.7774 15.7972 27.3022 15.7972 26.8067C15.7972 26.3112 15.6004 25.8361 15.25 25.4857C14.8996 25.1353 14.4244 24.9385 13.9289 24.9385H10.1925C9.69697 24.9385 9.22178 25.1353 8.87141 25.4857C8.52105 25.8361 8.32422 26.3112 8.32422 26.8067C8.32422 30.7706 9.89888 34.5722 12.7018 37.3751C15.5047 40.178 19.3063 41.7527 23.2702 41.7527C27.2341 41.7527 31.0356 40.178 33.8385 37.3751C36.6415 34.5722 38.2161 30.7706 38.2161 26.8067C38.2161 26.3112 38.0193 25.8361 37.6689 25.4857C37.3186 25.1353 36.8434 24.9385 36.3479 24.9385ZM23.2702 11.8608C22.9007 11.8608 22.5395 11.7512 22.2322 11.5459C21.925 11.3406 21.6855 11.0489 21.5441 10.7075C21.4027 10.3661 21.3657 9.99047 21.4378 9.62807C21.5099 9.26566 21.6878 8.93278 21.9491 8.6715C22.2104 8.41022 22.5433 8.23229 22.9057 8.1602C23.2681 8.08811 23.6437 8.12511 23.9851 8.26651C24.3265 8.40792 24.6183 8.64737 24.8236 8.9546C25.0288 9.26184 25.1384 9.62304 25.1384 9.99254C25.1384 10.488 24.9416 10.9632 24.5912 11.3136C24.2408 11.664 23.7657 11.8608 23.2702 11.8608Z" fill="#52005D"/>
</svg>
