<svg width="45" height="46" viewBox="0 0 45 46" fill="none" xmlns="http://www.w3.org/2000/svg">
<path d="M38.9906 32.9948L33.9277 24.2515C34.9637 22.3487 35.5034 20.2154 35.497 18.0489C35.497 14.5805 34.1192 11.2541 31.6666 8.80156C29.2141 6.34902 25.8877 4.97119 22.4193 4.97119C18.9509 4.97119 15.6245 6.34902 13.1719 8.80156C10.7194 11.2541 9.34158 14.5805 9.34158 18.0489C9.33514 20.2154 9.87488 22.3487 10.9109 24.2515L5.84796 32.9948C5.68367 33.2794 5.59733 33.6022 5.59766 33.9308C5.59798 34.2594 5.68496 34.5821 5.84981 34.8663C6.01466 35.1505 6.25156 35.3863 6.53661 35.5497C6.82165 35.7131 7.14476 35.7985 7.47333 35.7972H12.8352L15.5628 40.3931C15.6548 40.5454 15.768 40.6838 15.8991 40.8041C16.2454 41.1379 16.7072 41.3253 17.1882 41.3272H17.4498C17.7318 41.2886 18.0013 41.1861 18.2377 41.0274C18.474 40.8688 18.671 40.6582 18.8136 40.4118L22.4193 34.2092L26.025 40.4678C26.1696 40.7107 26.3675 40.9177 26.6038 41.073C26.84 41.2283 27.1084 41.328 27.3888 41.3646H27.6504C28.1378 41.3675 28.6072 41.1798 28.9581 40.8415C29.0838 40.728 29.1909 40.5956 29.2757 40.4491L32.0034 35.8533H37.3652C37.6944 35.8546 38.0181 35.7689 38.3036 35.6048C38.589 35.4408 38.826 35.2042 38.9906 34.9191C39.1652 34.6286 39.2574 34.296 39.2574 33.957C39.2574 33.618 39.1652 33.2854 38.9906 32.9948ZM17.1695 35.8533L15.5068 33.0696C15.3431 32.7934 15.1109 32.5641 14.8328 32.4037C14.5546 32.2434 14.2398 32.1574 13.9188 32.1541H10.6867L13.3583 27.5209C15.198 29.2936 17.5167 30.4887 20.0279 30.9585L17.1695 35.8533ZM22.4193 27.3901C20.5718 27.3901 18.7657 26.8423 17.2296 25.8158C15.6934 24.7894 14.4961 23.3305 13.7891 21.6236C13.0821 19.9167 12.8971 18.0385 13.2576 16.2265C13.618 14.4145 14.5077 12.75 15.814 11.4437C17.1204 10.1373 18.7849 9.2476 20.5969 8.88717C22.4089 8.52673 24.2871 8.71172 25.994 9.41874C27.7009 10.1258 29.1598 11.323 30.1862 12.8592C31.2126 14.3953 31.7605 16.2014 31.7605 18.0489C31.7605 20.5263 30.7763 22.9023 29.0245 24.6541C27.2727 26.4059 24.8967 27.3901 22.4193 27.3901ZM30.9198 32.1541C30.5987 32.1574 30.284 32.2434 30.0058 32.4037C29.7276 32.5641 29.4955 32.7934 29.3318 33.0696L27.669 35.8533L24.8293 30.9024C27.3318 30.423 29.6418 29.2291 31.4803 27.4648L34.1519 32.0981L30.9198 32.1541Z" fill="#52005D"/>
</svg>
