<svg width="46" height="46" viewBox="0 0 46 46" fill="none" xmlns="http://www.w3.org/2000/svg">
<path d="M24.8827 19.3339H21.1462C20.6507 19.3339 20.1755 19.5307 19.8252 19.8811C19.4748 20.2314 19.278 20.7066 19.278 21.2021C19.278 21.6976 19.4748 22.1728 19.8252 22.5232C20.1755 22.8735 20.6507 23.0704 21.1462 23.0704H24.8827C25.3782 23.0704 25.8534 22.8735 26.2038 22.5232C26.5541 22.1728 26.751 21.6976 26.751 21.2021C26.751 20.7066 26.5541 20.2314 26.2038 19.8811C25.8534 19.5307 25.3782 19.3339 24.8827 19.3339ZM34.2239 19.3339C34.2186 17.6813 33.6656 16.0771 32.6514 14.7723C31.6373 13.4675 30.2193 12.5356 28.6192 12.1225V9.99267C28.6192 8.5062 28.0287 7.08062 26.9776 6.02953C25.9265 4.97844 24.5009 4.38794 23.0145 4.38794C21.528 4.38794 20.1024 4.97844 19.0513 6.02953C18.0002 7.08062 17.4097 8.5062 17.4097 9.99267V12.1225C15.8096 12.5356 14.3916 13.4675 13.3775 14.7723C12.3634 16.0771 11.8104 17.6813 11.805 19.3339C9.82305 19.3339 7.92227 20.1212 6.52081 21.5227C5.11936 22.9241 4.33203 24.8249 4.33203 26.8069V32.4116C4.33203 33.8981 4.92253 35.3236 5.97362 36.3747C7.02471 37.4258 8.45029 38.0163 9.93676 38.0163H12.1413C12.5267 39.1065 13.2399 40.0508 14.1832 40.7198C15.1264 41.3887 16.2534 41.7496 17.4097 41.7528H28.6192C29.7755 41.7496 30.9026 41.3887 31.8458 40.7198C32.789 40.0508 33.5022 39.1065 33.8876 38.0163H36.0922C37.5786 38.0163 39.0042 37.4258 40.0553 36.3747C41.1064 35.3236 41.6969 33.8981 41.6969 32.4116V26.8069C41.6969 24.8249 40.9096 22.9241 39.5081 21.5227C38.1067 20.1212 36.2059 19.3339 34.2239 19.3339ZM11.805 34.2798H9.93676C9.44127 34.2798 8.96608 34.083 8.61571 33.7326C8.26535 33.3823 8.06852 32.9071 8.06852 32.4116V26.8069C8.06852 25.8159 8.46218 24.8655 9.16291 24.1648C9.86364 23.464 10.814 23.0704 11.805 23.0704V34.2798ZM21.1462 9.99267C21.1462 9.49718 21.3431 9.02199 21.6934 8.67162C22.0438 8.32126 22.519 8.12443 23.0145 8.12443C23.51 8.12443 23.9851 8.32126 24.3355 8.67162C24.6859 9.02199 24.8827 9.49718 24.8827 9.99267V11.8609H21.1462V9.99267ZM30.4874 36.1481C30.4874 36.6436 30.2906 37.1188 29.9402 37.4691C29.5899 37.8195 29.1147 38.0163 28.6192 38.0163H17.4097C16.9142 38.0163 16.4391 37.8195 16.0887 37.4691C15.7383 37.1188 15.5415 36.6436 15.5415 36.1481V34.2798C15.5415 33.2889 15.9352 32.3385 16.6359 31.6377C17.3366 30.937 18.287 30.5433 19.278 30.5433H26.751C27.7419 30.5433 28.6923 30.937 29.393 31.6377C30.0938 32.3385 30.4874 33.2889 30.4874 34.2798V36.1481ZM30.4874 27.8531C29.359 27.1739 28.068 26.8124 26.751 26.8069H19.278C17.9609 26.8124 16.6699 27.1739 15.5415 27.8531V19.3339C15.5415 18.3429 15.9352 17.3925 16.6359 16.6918C17.3366 15.9911 18.287 15.5974 19.278 15.5974H26.751C27.7419 15.5974 28.6923 15.9911 29.393 16.6918C30.0938 17.3925 30.4874 18.3429 30.4874 19.3339V27.8531ZM37.9604 32.4116C37.9604 32.9071 37.7636 33.3823 37.4132 33.7326C37.0629 34.083 36.5877 34.2798 36.0922 34.2798H34.2239V23.0704C35.2149 23.0704 36.1653 23.464 36.866 24.1648C37.5667 24.8655 37.9604 25.8159 37.9604 26.8069V32.4116Z" fill="#52005D"/>
</svg>
