<svg width="46" height="46" viewBox="0 0 46 46" fill="none" xmlns="http://www.w3.org/2000/svg">
<path d="M41.3577 21.3181C41.363 20.0013 41.0201 18.7065 40.364 17.5648C39.7078 16.4231 38.7617 15.475 37.6212 14.8166C37.6494 14.4934 37.6494 14.1684 37.6212 13.8451C37.6212 12.3587 37.0307 10.9331 35.9797 9.88201C34.9286 8.83091 33.503 8.24042 32.0165 8.24042H31.6802C31.3691 7.37787 30.8511 6.60483 30.1717 5.98909C29.4923 5.37334 28.6721 4.93369 27.7832 4.7087C26.8943 4.48371 25.9638 4.48024 25.0732 4.6986C24.1827 4.91697 23.3593 5.35049 22.6753 5.96116C21.9913 5.35049 21.1679 4.91697 20.2774 4.6986C19.3868 4.48024 18.4563 4.48371 17.5674 4.7087C16.6785 4.93369 15.8583 5.37334 15.1789 5.98909C14.4995 6.60483 13.9815 7.37787 13.6704 8.24042H13.3341C11.8476 8.24042 10.422 8.83091 9.37093 9.88201C8.31984 10.9331 7.72935 12.3587 7.72935 13.8451C7.70123 14.1684 7.70123 14.4934 7.72935 14.8166C6.66904 15.416 5.7713 16.2654 5.11425 17.2909C4.45721 18.3164 4.06079 19.487 3.95949 20.7007C3.85819 21.9145 4.05509 23.1346 4.53304 24.2548C5.011 25.3751 5.75553 26.3616 6.70181 27.1284C6.08953 28.2703 5.78472 29.5519 5.81728 30.8473C5.84985 32.1426 6.21867 33.4073 6.88756 34.5171C7.55644 35.6269 8.5024 36.5436 9.63258 37.1775C10.7628 37.8113 12.0383 38.1403 13.3341 38.1323H13.6704C13.9815 38.9949 14.4995 39.7679 15.1789 40.3836C15.8583 40.9994 16.6785 41.439 17.5674 41.664C18.4563 41.889 19.3868 41.8925 20.2774 41.6741C21.1679 41.4558 21.9913 41.0222 22.6753 40.4116C23.3593 41.0222 24.1827 41.4558 25.0732 41.6741C25.9638 41.8925 26.8943 41.889 27.7832 41.664C28.6721 41.439 29.4923 40.9994 30.1717 40.3836C30.8511 39.7679 31.3691 38.9949 31.6802 38.1323H32.0165C33.3043 38.1242 34.5682 37.7833 35.6855 37.1429C36.8029 36.5025 37.7357 35.5841 38.3936 34.477C39.0515 33.3699 39.4121 32.1115 39.4404 30.8239C39.4688 29.5364 39.1639 28.2634 38.5554 27.1284C39.4268 26.4307 40.1308 25.5466 40.6158 24.5412C41.1007 23.5357 41.3542 22.4344 41.3577 21.3181ZM20.8071 16.7409C20.4001 16.5082 19.9753 16.3083 19.5366 16.1431C19.0659 15.9845 18.5515 16.0195 18.1065 16.2402C17.6616 16.4609 17.3225 16.8494 17.164 17.3201C17.0054 17.7908 17.0403 18.3052 17.2611 18.7502C17.4818 19.1951 17.8703 19.5342 18.341 19.6927C19.0601 19.9527 19.6822 20.4271 20.1232 21.0519C20.5642 21.6766 20.8029 22.4217 20.8071 23.1864V26.0821C20.4001 25.8494 19.9753 25.6495 19.5366 25.4843C19.0659 25.3257 18.5515 25.3607 18.1065 25.5814C17.6616 25.8021 17.3225 26.1906 17.164 26.6613C17.0054 27.132 17.0403 27.6464 17.2611 28.0914C17.4818 28.5364 17.8703 28.8754 18.341 29.034C19.0601 29.294 19.6822 29.7684 20.1232 30.3931C20.5642 31.0179 20.8029 31.7629 20.8071 32.5276V36.2641C20.8071 36.7596 20.6102 37.2348 20.2599 37.5851C19.9095 37.9355 19.4343 38.1323 18.9388 38.1323C18.5774 38.13 18.2244 38.0228 17.9226 37.8238C17.6208 37.6249 17.3833 37.3426 17.2387 37.0114C17.552 36.8275 17.8517 36.6215 18.1355 36.3948C18.3244 36.2378 18.4805 36.0451 18.595 35.8278C18.7094 35.6104 18.7799 35.3726 18.8025 35.128C18.825 34.8834 18.7992 34.6368 18.7264 34.4021C18.6536 34.1675 18.5354 33.9495 18.3783 33.7606C18.2213 33.5717 18.0286 33.4156 17.8113 33.3011C17.5939 33.1867 17.3561 33.1162 17.1115 33.0936C16.8669 33.0711 16.6203 33.0969 16.3856 33.1697C16.151 33.2425 15.933 33.3607 15.7441 33.5177C15.0695 34.0856 14.2159 34.3967 13.3341 34.3958C12.3431 34.3958 11.3927 34.0022 10.692 33.3014C9.99125 32.6007 9.59759 31.6503 9.59759 30.6593C9.60653 29.9561 9.81375 29.2697 10.1954 28.679C10.6147 28.7542 11.0399 28.7917 11.4658 28.7911C11.9613 28.7911 12.4365 28.5943 12.7869 28.2439C13.1372 27.8935 13.3341 27.4183 13.3341 26.9228C13.3341 26.4274 13.1372 25.9522 12.7869 25.6018C12.4365 25.2514 11.9613 25.0546 11.4658 25.0546C11.0245 25.0571 10.5869 24.9747 10.1767 24.8117C9.50482 24.5694 8.91644 24.1395 8.4813 23.5731C8.04616 23.0067 7.7825 22.3274 7.72155 21.6157C7.66061 20.904 7.80493 20.1897 8.13742 19.5576C8.46992 18.9254 8.97665 18.4017 9.59759 18.0487C9.86306 18.2929 10.1508 18.5119 10.457 18.7026C10.8881 18.9503 11.3999 19.0167 11.8799 18.887C12.3599 18.7574 12.7687 18.4424 13.0165 18.0113C13.2642 17.5803 13.3306 17.0684 13.2009 16.5884C13.0713 16.1084 12.7563 15.6996 12.3252 15.4518C12.0622 15.3068 11.8429 15.0939 11.69 14.8353C11.5173 14.5354 11.4392 14.1902 11.4658 13.8451C11.4658 13.3497 11.6627 12.8745 12.013 12.5241C12.3634 12.1737 12.8386 11.9769 13.3341 11.9769C13.4642 11.9587 13.5963 11.9587 13.7264 11.9769C13.8253 12.2771 13.9439 12.5704 14.0814 12.855C14.2034 13.0691 14.3666 13.2569 14.5616 13.4076C14.7565 13.5583 14.9794 13.669 15.2173 13.7333C15.4552 13.7975 15.7034 13.8141 15.9478 13.782C16.1921 13.7499 16.4276 13.6698 16.6409 13.5462C17.0551 13.297 17.3565 12.897 17.482 12.4301C17.6074 11.9633 17.547 11.466 17.3134 11.0428C17.1567 10.7562 17.0732 10.4353 17.0706 10.1087C17.0706 9.61317 17.2674 9.13798 17.6178 8.78761C17.9681 8.43725 18.4433 8.24042 18.9388 8.24042C19.4343 8.24042 19.9095 8.43725 20.2599 8.78761C20.6102 9.13798 20.8071 9.61317 20.8071 10.1087V16.7409ZM35.1738 24.8117C34.7637 24.9747 34.3261 25.0571 33.8848 25.0546C33.3893 25.0546 32.9141 25.2514 32.5637 25.6018C32.2133 25.9522 32.0165 26.4274 32.0165 26.9228C32.0165 27.4183 32.2133 27.8935 32.5637 28.2439C32.9141 28.5943 33.3893 28.7911 33.8848 28.7911C34.3107 28.7917 34.7359 28.7542 35.1552 28.679C35.5368 29.2697 35.7441 29.9561 35.753 30.6593C35.753 31.6503 35.3593 32.6007 34.6586 33.3014C33.9579 34.0022 33.0075 34.3958 32.0165 34.3958C31.1347 34.3967 30.281 34.0856 29.6065 33.5177C29.2249 33.2006 28.7331 33.0481 28.2391 33.0936C27.7451 33.1392 27.2894 33.3791 26.9723 33.7606C26.6551 34.1421 26.5026 34.634 26.5481 35.128C26.5937 35.622 26.8336 36.0777 27.2151 36.3948C27.4989 36.6215 27.7986 36.8275 28.1119 37.0114C27.9673 37.3426 27.7297 37.6249 27.428 37.8238C27.1262 38.0228 26.7732 38.13 26.4118 38.1323C25.9163 38.1323 25.4411 37.9355 25.0907 37.5851C24.7404 37.2348 24.5435 36.7596 24.5435 36.2641V32.5276C24.5477 31.7629 24.7864 31.0179 25.2274 30.3931C25.6684 29.7684 26.2905 29.294 27.0096 29.034C27.4803 28.8754 27.8688 28.5364 28.0895 28.0914C28.3102 27.6464 28.3452 27.132 28.1866 26.6613C28.0281 26.1906 27.689 25.8021 27.244 25.5814C26.7991 25.3607 26.2847 25.3257 25.8139 25.4843C25.3753 25.6495 24.9504 25.8494 24.5435 26.0821V23.1864C24.5477 22.4217 24.7864 21.6766 25.2274 21.0519C25.6684 20.4271 26.2905 19.9527 27.0096 19.6927C27.4803 19.5342 27.8688 19.1951 28.0895 18.7502C28.3102 18.3052 28.3452 17.7908 28.1866 17.3201C28.0281 16.8494 27.689 16.4609 27.244 16.2402C26.7991 16.0195 26.2847 15.9845 25.8139 16.1431C25.3753 16.3083 24.9504 16.5082 24.5435 16.7409V10.1087C24.5435 9.61317 24.7404 9.13798 25.0907 8.78761C25.4411 8.43725 25.9163 8.24042 26.4118 8.24042C26.9073 8.24042 27.3825 8.43725 27.7328 8.78761C28.0832 9.13798 28.28 9.61317 28.28 10.1087C28.2773 10.4353 28.1939 10.7562 28.0372 11.0428C27.9129 11.2549 27.8316 11.4895 27.7982 11.733C27.7647 11.9766 27.7796 12.2244 27.8421 12.4621C27.9046 12.6999 28.0134 12.923 28.1623 13.1187C28.3112 13.3143 28.4972 13.4787 28.7097 13.6023C28.9229 13.7258 29.1585 13.8059 29.4028 13.838C29.6472 13.8701 29.8954 13.8536 30.1333 13.7893C30.3712 13.7251 30.5941 13.6144 30.789 13.4637C30.984 13.3129 31.1472 13.1251 31.2692 12.911C31.409 12.6083 31.5277 12.2961 31.6242 11.9769C31.7543 11.9587 31.8864 11.9587 32.0165 11.9769C32.512 11.9769 32.9872 12.1737 33.3376 12.5241C33.6879 12.8745 33.8848 13.3497 33.8848 13.8451C33.8819 14.2114 33.7714 14.5687 33.5672 14.8727C33.4144 15.1151 33.2021 15.3145 32.9506 15.4518C32.5196 15.6996 32.2046 16.1084 32.0749 16.5884C31.9453 17.0684 32.0116 17.5803 32.2594 18.0113C32.5071 18.4424 32.916 18.7574 33.396 18.887C33.876 19.0167 34.3878 18.9503 34.8189 18.7026C35.1543 18.5212 35.4677 18.3018 35.753 18.0487C36.3761 18.3955 36.8869 18.9134 37.2251 19.5411C37.5633 20.1689 37.7149 20.8803 37.6619 21.5914C37.6088 22.3025 37.3534 22.9836 36.9258 23.5542C36.4982 24.1248 35.9162 24.5612 35.2486 24.8117H35.1738Z" fill="#52005D"/>
</svg>
