<svg width="45" height="46" viewBox="0 0 45 46" fill="none" xmlns="http://www.w3.org/2000/svg">
<path d="M9.50317 23.2447C9.50317 22.7492 9.30634 22.274 8.95597 21.9236C8.60561 21.5733 8.13041 21.3764 7.63492 21.3764H5.76668C5.27119 21.3764 4.796 21.5733 4.44563 21.9236C4.09527 22.274 3.89844 22.7492 3.89844 23.2447C3.89844 23.7402 4.09527 24.2154 4.44563 24.5657C4.796 24.9161 5.27119 25.1129 5.76668 25.1129H7.63492C8.13041 25.1129 8.60561 24.9161 8.95597 24.5657C9.30634 24.2154 9.50317 23.7402 9.50317 23.2447ZM10.6988 32.5859L9.37239 33.9124C9.02443 34.2624 8.82912 34.7359 8.82912 35.2295C8.82912 35.723 9.02443 36.1965 9.37239 36.5466C9.72243 36.8945 10.1959 37.0899 10.6895 37.0899C11.1831 37.0899 11.6566 36.8945 12.0066 36.5466L13.3331 35.2201C13.6391 34.8627 13.7991 34.403 13.7809 33.9328C13.7627 33.4626 13.5678 33.0166 13.2351 32.6839C12.9024 32.3511 12.4564 32.1562 11.9862 32.1381C11.516 32.1199 11.0562 32.2798 10.6988 32.5859ZM22.5809 10.167C23.0764 10.167 23.5516 9.97015 23.9019 9.61979C24.2523 9.26943 24.4491 8.79423 24.4491 8.29874V6.4305C24.4491 5.93501 24.2523 5.45982 23.9019 5.10945C23.5516 4.75909 23.0764 4.56226 22.5809 4.56226C22.0854 4.56226 21.6102 4.75909 21.2598 5.10945C20.9095 5.45982 20.7126 5.93501 20.7126 6.4305V8.29874C20.7126 8.79423 20.9095 9.26943 21.2598 9.61979C21.6102 9.97015 22.0854 10.167 22.5809 10.167ZM33.1551 14.5387C33.6452 14.5366 34.1149 14.342 34.4629 13.9969L35.7894 12.6704C35.9849 12.503 36.1438 12.2968 36.2559 12.0651C36.368 11.8333 36.4311 11.5808 36.441 11.3235C36.4509 11.0662 36.4076 10.8097 36.3137 10.5699C36.2197 10.3302 36.0773 10.1124 35.8952 9.93037C35.7131 9.7483 35.4954 9.60584 35.2556 9.51191C35.0159 9.41798 34.7593 9.37463 34.502 9.38457C34.2447 9.39451 33.9923 9.45752 33.7605 9.56966C33.5287 9.6818 33.3226 9.84064 33.1551 10.0362L31.9221 11.3627C31.5741 11.7127 31.3788 12.1862 31.3788 12.6798C31.3788 13.1733 31.5741 13.6468 31.9221 13.9969C32.2514 14.3245 32.6911 14.5177 33.1551 14.5387ZM10.7362 13.9969C11.0842 14.342 11.5539 14.5366 12.044 14.5387C12.2899 14.5401 12.5336 14.493 12.7612 14.4C12.9888 14.307 13.1959 14.17 13.3704 13.9969C13.7184 13.6468 13.9137 13.1733 13.9137 12.6798C13.9137 12.1862 13.7184 11.7127 13.3704 11.3627L12.044 10.0362C11.871 9.86079 11.6652 9.72116 11.4383 9.62528C11.2113 9.52941 10.9677 9.47917 10.7214 9.47743C10.475 9.4757 10.2308 9.5225 10.0025 9.61517C9.77426 9.70784 9.56649 9.84456 9.39107 10.0175C9.21565 10.1905 9.07602 10.3963 8.98015 10.6232C8.88427 10.8502 8.83403 11.0938 8.8323 11.3401C8.82879 11.8376 9.02307 12.3162 9.37239 12.6704L10.7362 13.9969ZM39.3951 21.3764H37.5268C37.0313 21.3764 36.5561 21.5733 36.2058 21.9236C35.8554 22.274 35.6586 22.7492 35.6586 23.2447C35.6586 23.7402 35.8554 24.2154 36.2058 24.5657C36.5561 24.9161 37.0313 25.1129 37.5268 25.1129H39.3951C39.8906 25.1129 40.3657 24.9161 40.7161 24.5657C41.0665 24.2154 41.2633 23.7402 41.2633 23.2447C41.2633 22.7492 41.0665 22.274 40.7161 21.9236C40.3657 21.5733 39.8906 21.3764 39.3951 21.3764ZM34.4629 32.5859C34.108 32.3885 33.6983 32.3121 33.2961 32.3683C32.8939 32.4246 32.5209 32.6103 32.2337 32.8975C31.9465 33.1847 31.7607 33.5577 31.7045 33.9599C31.6483 34.3622 31.7247 34.7718 31.9221 35.1267L33.2485 36.4532C33.5986 36.8011 34.0721 36.9964 34.5657 36.9964C35.0592 36.9964 35.5327 36.8011 35.8828 36.4532C36.2307 36.1031 36.426 35.6296 36.426 35.1361C36.426 34.6425 36.2307 34.169 35.8828 33.8189L34.4629 32.5859ZM22.5809 12.9694C20.5486 12.9694 18.562 13.572 16.8722 14.7011C15.1824 15.8301 13.8654 17.4349 13.0877 19.3125C12.31 21.1901 12.1065 23.2561 12.503 25.2493C12.8994 27.2425 13.8781 29.0734 15.3151 30.5105C16.7521 31.9475 18.583 32.9261 20.5763 33.3226C22.5695 33.7191 24.6355 33.5156 26.5131 32.7379C28.3906 31.9601 29.9954 30.6431 31.1245 28.9534C32.2536 27.2636 32.8562 25.277 32.8562 23.2447C32.8513 20.521 31.7671 17.9103 29.8412 15.9844C27.9152 14.0585 25.3045 12.9743 22.5809 12.9694ZM22.5809 29.7835C21.2876 29.7835 20.0234 29.4 18.9481 28.6815C17.8728 27.963 17.0347 26.9418 16.5398 25.747C16.0448 24.5522 15.9154 23.2374 16.1677 21.969C16.42 20.7006 17.0427 19.5355 17.9572 18.621C18.8717 17.7065 20.0368 17.0838 21.3052 16.8315C22.5736 16.5792 23.8884 16.7087 25.0832 17.2036C26.278 17.6985 27.2992 18.5366 28.0177 19.6119C28.7362 20.6872 29.1197 21.9514 29.1197 23.2447C29.1197 24.9789 28.4308 26.6421 27.2045 27.8684C25.9783 29.0946 24.3151 29.7835 22.5809 29.7835ZM22.5809 36.3224C22.0854 36.3224 21.6102 36.5192 21.2598 36.8696C20.9095 37.22 20.7126 37.6951 20.7126 38.1906V40.0589C20.7126 40.5544 20.9095 41.0296 21.2598 41.3799C21.6102 41.7303 22.0854 41.9271 22.5809 41.9271C23.0764 41.9271 23.5516 41.7303 23.9019 41.3799C24.2523 41.0296 24.4491 40.5544 24.4491 40.0589V38.1906C24.4491 37.6951 24.2523 37.22 23.9019 36.8696C23.5516 36.5192 23.0764 36.3224 22.5809 36.3224Z" fill="#52005D"/>
</svg>
