<svg width="46" height="46" viewBox="0 0 46 46" fill="none" xmlns="http://www.w3.org/2000/svg">
<path d="M35.0607 15.2486C33.9192 12.6256 31.9492 10.4492 29.4524 9.05296C26.9557 7.65673 24.07 7.11766 21.2375 7.51835C18.4051 7.91905 15.7822 9.2374 13.7707 11.2714C11.7592 13.3054 10.4702 15.9428 10.101 18.7795C8.53583 19.1608 7.13574 20.0376 6.10942 21.2792C5.08309 22.5209 4.48548 24.061 4.40567 25.67C4.32585 27.2789 4.76809 28.8706 5.66648 30.2078C6.56488 31.545 7.87131 32.556 9.39108 33.0903C9.58484 33.15 9.78619 33.1814 9.98892 33.1837C10.4844 33.263 10.9911 33.1422 11.3975 32.8479C11.8039 32.5536 12.0768 32.1099 12.1561 31.6144C12.2354 31.1189 12.1146 30.6122 11.8203 30.2058C11.5259 29.7994 11.0822 29.5265 10.5868 29.4472C9.88226 29.1929 9.27045 28.7327 8.83071 28.1264C8.39097 27.5201 8.14359 26.7957 8.12068 26.047C8.12068 25.056 8.51434 24.1056 9.21507 23.4049C9.91579 22.7042 10.8662 22.3105 11.8572 22.3105C12.3527 22.3105 12.8278 22.1137 13.1782 21.7633C13.5286 21.413 13.7254 20.9378 13.7254 20.4423C13.7302 18.2327 14.5181 16.0963 15.9491 14.4127C17.3802 12.7291 19.3617 11.6073 21.5417 11.2466C23.7216 10.8858 25.9589 11.3096 27.856 12.4425C29.7531 13.5754 31.1871 15.3441 31.9034 17.4344C32.0102 17.7554 32.2022 18.0415 32.4588 18.2619C32.7155 18.4824 33.0272 18.629 33.3606 18.6861C34.4841 18.8895 35.5186 19.4311 36.3259 20.2384C37.1331 21.0458 37.6745 22.0804 37.8777 23.2039C38.0809 24.3274 37.9361 25.4861 37.4627 26.5251C36.9893 27.564 36.21 28.4336 35.2289 29.0175C34.7978 29.2653 34.4828 29.6741 34.3532 30.1541C34.2235 30.6341 34.2899 31.1459 34.5376 31.577C34.7854 32.0081 35.1942 32.3231 35.6742 32.4527C36.1542 32.5824 36.6661 32.516 37.0971 32.2683C38.5137 31.4461 39.6891 30.2659 40.5056 28.846C41.3221 27.4262 41.7509 25.8166 41.7491 24.1788C41.7434 22.1688 41.0895 20.2142 39.8846 18.6054C38.6797 16.9966 36.988 15.8194 35.0607 15.2486ZM23.0666 24.7953C22.0316 24.259 20.8529 24.0659 19.7009 24.2439C18.5489 24.4219 17.4834 24.9618 16.6585 25.7855C15.6398 26.811 15.068 28.1978 15.068 29.6434C15.068 31.0889 15.6398 32.4758 16.6585 33.5013L21.7402 38.5829C21.9138 38.758 22.1205 38.897 22.3481 38.9919C22.5758 39.0867 22.82 39.1355 23.0666 39.1355C23.3133 39.1355 23.5574 39.0867 23.7851 38.9919C24.0128 38.897 24.2194 38.758 24.3931 38.5829L29.4747 33.5013C30.4935 32.4758 31.0653 31.0889 31.0653 29.6434C31.0653 28.1978 30.4935 26.811 29.4747 25.7855C28.6499 24.9618 27.5844 24.4219 26.4324 24.2439C25.2804 24.0659 24.1016 24.259 23.0666 24.7953ZM26.8031 30.8484L23.0666 34.5849L19.3301 30.8484C19.167 30.6916 19.038 30.5028 18.9512 30.2938C18.8644 30.0849 18.8217 29.8603 18.8257 29.634C18.8228 29.408 18.866 29.1837 18.9528 28.9749C19.0395 28.7661 19.1679 28.5772 19.3301 28.4197C19.6524 28.098 20.0891 27.9173 20.5445 27.9173C20.9999 27.9173 21.4366 28.098 21.7589 28.4197C21.9325 28.5948 22.1392 28.7338 22.3668 28.8286C22.5945 28.9235 22.8387 28.9723 23.0853 28.9723C23.3319 28.9723 23.5761 28.9235 23.8038 28.8286C24.0315 28.7338 24.2381 28.5948 24.4118 28.4197C24.7386 28.1068 25.1736 27.9321 25.6261 27.9321C26.0786 27.9321 26.5136 28.1068 26.8405 28.4197C27.0027 28.5772 27.1311 28.7661 27.2178 28.9749C27.3046 29.1837 27.3478 29.408 27.3449 29.634C27.3441 29.863 27.2956 30.0893 27.2023 30.2984C27.109 30.5076 26.973 30.6949 26.8031 30.8484Z" fill="#52005D"/>
</svg>
