<svg width="46" height="46" viewBox="0 0 46 46" fill="none" xmlns="http://www.w3.org/2000/svg">
<path d="M19.196 19.392C19.196 19.0225 19.0864 18.6613 18.8811 18.354C18.6758 18.0468 18.384 17.8074 18.0427 17.666C17.7013 17.5246 17.3256 17.4876 16.9632 17.5596C16.6008 17.6317 16.2679 17.8097 16.0067 18.0709C15.7454 18.3322 15.5675 18.6651 15.4954 19.0275C15.4233 19.3899 15.4603 19.7656 15.6017 20.1069C15.7431 20.4483 15.9825 20.7401 16.2898 20.9454C16.597 21.1507 16.9582 21.2602 17.3277 21.2602C17.8232 21.2602 18.2984 21.0634 18.6488 20.713C18.9991 20.3627 19.196 19.8875 19.196 19.392ZM27.603 26.9771C27.3909 26.8528 27.1564 26.7715 26.9128 26.7381C26.6692 26.7046 26.4215 26.7196 26.1837 26.782C25.9459 26.8445 25.7228 26.9533 25.5272 27.1022C25.3315 27.2511 25.1672 27.4371 25.0436 27.6496C24.8315 28.0225 24.5244 28.3326 24.1536 28.5483C23.7828 28.7639 23.3614 28.8776 22.9324 28.8776C22.5035 28.8776 22.0821 28.7639 21.7113 28.5483C21.3405 28.3326 21.0334 28.0225 20.8213 27.6496C20.6977 27.4371 20.5334 27.2511 20.3377 27.1022C20.1421 26.9533 19.919 26.8445 19.6812 26.782C19.4434 26.7196 19.1956 26.7046 18.9521 26.7381C18.7085 26.7715 18.4739 26.8528 18.2618 26.9771C17.8345 27.2235 17.522 27.629 17.3925 28.105C17.263 28.581 17.327 29.0889 17.5706 29.5179C18.1125 30.461 18.8935 31.2445 19.8349 31.7893C20.7763 32.3341 21.8447 32.621 22.9324 32.621C24.0201 32.621 25.0886 32.3341 26.03 31.7893C26.9714 31.2445 27.7524 30.461 28.2943 29.5179C28.5379 29.0889 28.6019 28.581 28.4724 28.105C28.3429 27.629 28.0304 27.2235 27.603 26.9771ZM28.5372 17.5237C28.1677 17.5237 27.8065 17.6333 27.4992 17.8386C27.192 18.0439 26.9525 18.3357 26.8111 18.677C26.6697 19.0184 26.6327 19.3941 26.7048 19.7565C26.7769 20.1189 26.9548 20.4518 27.2161 20.713C27.4774 20.9743 27.8103 21.1523 28.1727 21.2243C28.5351 21.2964 28.9107 21.2594 29.2521 21.118C29.5935 20.9766 29.8853 20.7372 30.0906 20.4299C30.2958 20.1227 30.4054 19.7615 30.4054 19.392C30.4054 18.8965 30.2086 18.4213 29.8582 18.0709C29.5079 17.7206 29.0327 17.5237 28.5372 17.5237ZM22.9324 4.44604C19.2374 4.44604 15.6253 5.54175 12.553 7.5946C9.48073 9.64745 7.08615 12.5653 5.67212 15.979C4.25809 19.3928 3.88812 23.1492 4.60899 26.7732C5.32985 30.3973 7.10918 33.7262 9.72197 36.339C12.3348 38.9517 15.6636 40.7311 19.2877 41.4519C22.9117 42.1728 26.6681 41.8028 30.0819 40.3888C33.4957 38.9748 36.4135 36.5802 38.4663 33.5079C40.5192 30.4356 41.6149 26.8235 41.6149 23.1285C41.6149 20.6751 41.1316 18.2457 40.1928 15.979C39.2539 13.7124 37.8777 11.6528 36.1429 9.918C34.4081 8.18318 32.3486 6.80704 30.0819 5.86816C27.8152 4.92928 25.3859 4.44604 22.9324 4.44604ZM22.9324 38.0744C19.4525 38.0894 16.0764 36.8897 13.3863 34.682C10.6962 32.4743 8.86087 29.3971 8.1967 25.9811C7.53254 22.5651 8.08122 19.0244 9.74812 15.9696C11.415 12.9148 14.0956 10.5374 17.3277 9.24743C17.3085 9.51487 17.3085 9.78334 17.3277 10.0508C17.3277 11.5372 17.9182 12.9628 18.9693 14.0139C20.0204 15.065 21.446 15.6555 22.9324 15.6555C23.4279 15.6555 23.9031 15.4587 24.2535 15.1083C24.6039 14.7579 24.8007 14.2828 24.8007 13.7873C24.8007 13.2918 24.6039 12.8166 24.2535 12.4662C23.9031 12.1159 23.4279 11.919 22.9324 11.919C22.437 11.919 21.9618 11.7222 21.6114 11.3718C21.261 11.0215 21.0642 10.5463 21.0642 10.0508C21.0642 9.55529 21.261 9.08009 21.6114 8.72973C21.9618 8.37936 22.437 8.18253 22.9324 8.18253C26.8964 8.18253 30.6979 9.75719 33.5008 12.5601C36.3037 15.363 37.8784 19.1646 37.8784 23.1285C37.8784 27.0924 36.3037 30.8939 33.5008 33.6969C30.6979 36.4998 26.8964 38.0744 22.9324 38.0744Z" fill="#52005D"/>
</svg>
