<svg width="46" height="46" viewBox="0 0 46 46" fill="none" xmlns="http://www.w3.org/2000/svg">
<path d="M32.2384 6.03616C30.5202 4.62299 28.5081 3.61123 26.3491 3.0747C24.19 2.53817 21.9384 2.4904 19.7585 2.93487C16.856 3.52117 14.193 4.95645 12.1075 7.05861C10.022 9.16077 8.60787 11.8351 8.04465 14.7422C7.63335 16.9219 7.70809 19.1655 8.26354 21.313C8.81898 23.4605 9.84145 25.459 11.258 27.166C12.5727 28.6495 13.3262 30.5466 13.3878 32.5278V38.1326C13.3878 39.619 13.9783 41.0446 15.0294 42.0957C16.0805 43.1468 17.5061 43.7373 18.9926 43.7373H26.4655C27.952 43.7373 29.3776 43.1468 30.4287 42.0957C31.4798 41.0446 32.0703 39.619 32.0703 38.1326V32.8828C32.133 30.6954 32.9366 28.5941 34.3495 26.9231C36.8252 23.8607 37.9921 19.9449 37.5968 16.0268C37.2015 12.1088 35.2759 8.50502 32.2384 5.99879V6.03616ZM28.3338 38.1326C28.3338 38.6281 28.1369 39.1033 27.7866 39.4536C27.4362 39.804 26.961 40.0008 26.4655 40.0008H18.9926C18.4971 40.0008 18.0219 39.804 17.6715 39.4536C17.3211 39.1033 17.1243 38.6281 17.1243 38.1326V36.2643H28.3338V38.1326ZM31.4537 24.6065C29.5752 26.8346 28.4792 29.6172 28.3338 32.5278H24.5973V26.9231C24.5973 26.4276 24.4005 25.9524 24.0501 25.6021C23.6997 25.2517 23.2245 25.0549 22.729 25.0549C22.2336 25.0549 21.7584 25.2517 21.408 25.6021C21.0576 25.9524 20.8608 26.4276 20.8608 26.9231V32.5278H17.1243C17.075 29.6659 16.0163 26.9133 14.1351 24.756C12.8939 23.2688 12.0593 21.4854 11.7126 19.5797C11.3659 17.674 11.5189 15.7109 12.1568 13.8819C12.7947 12.0529 13.8957 10.4204 15.3523 9.14365C16.809 7.86686 18.5717 6.98933 20.4685 6.59663C22.0986 6.26099 23.783 6.29256 25.3995 6.68905C27.0159 7.08554 28.5237 7.837 29.8135 8.88888C31.1033 9.94075 32.1427 11.2666 32.8562 12.7703C33.5697 14.2739 33.9394 15.9176 33.9385 17.5819C33.9523 20.1411 33.0737 22.6252 31.4537 24.6065Z" fill="#52005D"/>
</svg>
