<svg width="45" height="46" viewBox="0 0 45 46" fill="none" xmlns="http://www.w3.org/2000/svg">
<path d="M40.1338 16.8697C40.1338 16.8697 40.1338 16.8697 40.1338 16.7576C38.829 13.1593 36.4504 10.0486 33.3198 7.8463C30.1892 5.644 26.4578 4.45642 22.6302 4.44419C18.8026 4.43196 15.0636 5.59568 11.919 7.77793C8.77442 9.96017 6.376 13.0556 5.04819 16.6455C4.97629 16.7867 4.92591 16.9378 4.89873 17.0939C4.22241 19.0341 3.87512 21.0737 3.8712 23.1283C3.86195 25.856 4.45011 28.5527 5.59436 31.0288C6.73861 33.5049 8.41118 35.7004 10.4946 37.4611C12.5779 39.2217 15.0216 40.5048 17.6538 41.2202C20.2861 41.9356 23.043 42.0659 25.731 41.6019C28.4189 41.138 30.9727 40.0911 33.2129 38.5348C35.453 36.9785 37.3252 34.9505 38.6979 32.5934C40.0706 30.2363 40.9105 27.6071 41.1585 24.8907C41.4066 22.1743 41.0568 19.4365 40.1338 16.8697ZM22.5536 8.1824C25.1746 8.18509 27.7488 8.87696 30.0179 10.1886C32.2871 11.5003 34.1714 13.3856 35.4819 15.6554H33.24C32.6844 15.0447 32.0009 14.5643 31.2381 14.2485C30.4753 13.9327 29.6522 13.7893 28.8276 13.8286C28.0029 13.8679 27.1972 14.0888 26.4679 14.4757C25.7386 14.8625 25.1037 15.4057 24.6087 16.0664C23.9536 15.8083 23.2576 15.6691 22.5536 15.6554C21.8496 15.6691 21.1537 15.8083 20.4986 16.0664C20.0036 15.4057 19.3687 14.8625 18.6394 14.4757C17.9101 14.0888 17.1043 13.8679 16.2797 13.8286C15.4551 13.7893 14.632 13.9327 13.8692 14.2485C13.1064 14.5643 12.4228 15.0447 11.8673 15.6554H9.62539C10.9359 13.3856 12.8202 11.5003 15.0894 10.1886C17.3585 8.87696 19.9327 8.18509 22.5536 8.1824ZM30.9607 19.3919C30.9607 19.7614 30.8512 20.1226 30.6459 20.4298C30.4406 20.737 30.1488 20.9765 29.8074 21.1179C29.4661 21.2593 29.0904 21.2963 28.728 21.2242C28.3656 21.1521 28.0327 20.9742 27.7714 20.7129C27.5102 20.4516 27.3322 20.1187 27.2601 19.7563C27.1881 19.3939 27.2251 19.0183 27.3665 18.6769C27.5079 18.3355 27.7473 18.0438 28.0545 17.8385C28.3618 17.6332 28.723 17.5236 29.0925 17.5236C29.588 17.5236 30.0632 17.7205 30.4135 18.0708C30.7639 18.4212 30.9607 18.8964 30.9607 19.3919ZM17.883 19.3919C17.883 19.7614 17.7735 20.1226 17.5682 20.4298C17.3629 20.737 17.0711 20.9765 16.7297 21.1179C16.3884 21.2593 16.0127 21.2963 15.6503 21.2242C15.2879 21.1521 14.955 20.9742 14.6937 20.7129C14.4325 20.4516 14.2545 20.1187 14.1824 19.7563C14.1104 19.3939 14.1473 19.0183 14.2888 18.6769C14.4302 18.3355 14.6696 18.0438 14.9768 17.8385C15.2841 17.6332 15.6453 17.5236 16.0148 17.5236C16.5103 17.5236 16.9855 17.7205 17.3358 18.0708C17.6862 18.4212 17.883 18.8964 17.883 19.3919ZM22.5536 38.0743C18.5897 38.0743 14.7882 36.4996 11.9853 33.6967C9.18235 30.8938 7.60769 27.0923 7.60769 23.1283C7.61599 21.8677 7.77913 20.6128 8.09343 19.3919H10.4101C10.3655 20.8783 10.9132 22.3216 11.9327 23.4043C12.9523 24.4869 14.3602 25.1201 15.8466 25.1647C17.3331 25.2093 18.7764 24.6616 19.859 23.642C20.9417 22.6225 21.5749 21.2146 21.6195 19.7281C21.9035 19.5642 22.2257 19.4778 22.5536 19.4778C22.8816 19.4778 23.2037 19.5642 23.4878 19.7281C23.5324 21.2146 24.1656 22.6225 25.2482 23.642C26.3309 24.6616 27.7742 25.2093 29.2606 25.1647C30.7471 25.1201 32.155 24.4869 33.1745 23.4043C34.1941 22.3216 34.7418 20.8783 34.6972 19.3919H37.0138C37.3281 20.6128 37.4913 21.8677 37.4996 23.1283C37.4996 27.0923 35.9249 30.8938 33.122 33.6967C30.3191 36.4996 26.5175 38.0743 22.5536 38.0743ZM26.9627 27.2945C25.7138 28.3015 24.1579 28.8506 22.5536 28.8506C20.9494 28.8506 19.3935 28.3015 18.1446 27.2945C17.7631 26.9774 17.2712 26.8249 16.7772 26.8704C16.2832 26.9159 15.8275 27.1559 15.5104 27.5374C15.1932 27.9189 15.0407 28.4108 15.0862 28.9048C15.1318 29.3988 15.3717 29.8545 15.7532 30.1716C17.6613 31.7645 20.0681 32.637 22.5536 32.637C25.0392 32.637 27.4459 31.7645 29.354 30.1716C29.7356 29.8545 29.9755 29.3988 30.021 28.9048C30.0666 28.4108 29.914 27.9189 29.5969 27.5374C29.4399 27.3485 29.2472 27.1924 29.0298 27.0779C28.8125 26.9635 28.5747 26.893 28.3301 26.8704C27.8361 26.8249 27.3442 26.9774 26.9627 27.2945Z" fill="#52005D"/>
</svg>
