<svg width="46" height="46" viewBox="0 0 46 46" fill="none" xmlns="http://www.w3.org/2000/svg">
<path d="M32.6389 41.8689H10.22C8.7335 41.8689 7.30791 41.2784 6.25682 40.2273C5.20573 39.1762 4.61523 37.7506 4.61523 36.2642V17.5817C4.61523 16.0953 5.20573 14.6697 6.25682 13.6186C7.30791 12.5675 8.7335 11.977 10.22 11.977H12.0882C12.1196 10.3939 12.6531 8.86176 13.6116 7.60146C14.5701 6.34116 15.9042 5.41789 17.4214 4.96481C18.9385 4.51174 20.5604 4.55227 22.0531 5.08057C23.5457 5.60888 24.832 6.59764 25.7264 7.90424C26.5642 9.09833 27.0202 10.5184 27.0342 11.977H32.6389C33.1344 11.977 33.6096 12.1738 33.9599 12.5242C34.3103 12.8746 34.5071 13.3498 34.5071 13.8453V19.45C36.0902 19.4814 37.6224 20.0149 38.8827 20.9734C40.143 21.9319 41.0662 23.266 41.5193 24.7831C41.9724 26.3003 41.9319 27.9222 41.4036 29.4149C40.8753 30.9075 39.8865 32.1938 38.5799 33.0882C37.3858 33.926 35.9657 34.3819 34.5071 34.3959V40.0007C34.5071 40.4962 34.3103 40.9713 33.9599 41.3217C33.6096 41.6721 33.1344 41.8689 32.6389 41.8689ZM10.22 15.7135C9.72447 15.7135 9.24928 15.9103 8.89892 16.2607C8.54855 16.6111 8.35172 17.0863 8.35172 17.5817V36.2642C8.35172 36.7597 8.54855 37.2349 8.89892 37.5852C9.24928 37.9356 9.72447 38.1324 10.22 38.1324H30.7706V32.1914C30.769 31.8919 30.8395 31.5963 30.976 31.3297C31.1126 31.0631 31.3113 30.8332 31.5553 30.6594C31.7986 30.486 32.08 30.3733 32.3758 30.3311C32.6716 30.2888 32.9733 30.3181 33.2554 30.4166C33.7878 30.6338 34.3677 30.7084 34.9378 30.633C35.5079 30.5577 36.0484 30.335 36.5061 29.9869C36.9617 29.7091 37.3525 29.3369 37.6522 28.8954C37.9519 28.4539 38.1536 27.9533 38.2436 27.4274C38.3157 26.8969 38.2729 26.3571 38.1182 25.8446C37.9634 25.3321 37.7004 24.8589 37.3469 24.4569C36.8687 23.8761 36.2176 23.4632 35.4883 23.2783C34.7591 23.0935 33.9898 23.1464 33.2928 23.4293C33.0106 23.5278 32.709 23.5571 32.4132 23.5148C32.1173 23.4726 31.836 23.36 31.5927 23.1865C31.3486 23.0127 31.15 22.7829 31.0134 22.5162C30.8768 22.2496 30.8064 21.9541 30.808 21.6545V15.7135H24.8296C24.5226 15.7309 24.216 15.6722 23.9371 15.5427C23.6581 15.4132 23.4155 15.2168 23.2307 14.971C23.0459 14.7252 22.9246 14.4376 22.8776 14.1336C22.8306 13.8297 22.8594 13.5189 22.9614 13.2287C23.1786 12.6963 23.2532 12.1164 23.1778 11.5464C23.1025 10.9763 22.8798 10.4357 22.5317 9.97799C22.2558 9.50937 21.8781 9.10883 21.4264 8.80603C20.9748 8.50324 20.4607 8.30596 19.9225 8.2288C19.3842 8.15165 18.8355 8.19661 18.3169 8.36034C17.7984 8.52407 17.3233 8.80238 16.927 9.17465C16.5589 9.53973 16.2708 9.97742 16.081 10.4599C15.8912 10.9423 15.804 11.459 15.8247 11.977C15.829 12.4055 15.9113 12.8297 16.0676 13.2287C16.1663 13.5112 16.1958 13.8134 16.1534 14.1096C16.1111 14.4059 15.9982 14.6877 15.8242 14.9312C15.6503 15.1747 15.4204 15.3729 15.1539 15.509C14.8873 15.6452 14.592 15.7153 14.2927 15.7135H10.22Z" fill="#52005D"/>
</svg>
