<svg width="46" height="46" viewBox="0 0 46 46" fill="none" xmlns="http://www.w3.org/2000/svg">
<path d="M41.2851 22.9624L37.5486 18.2918C37.3746 18.0716 37.1533 17.8935 36.901 17.7705C36.6487 17.6476 36.372 17.5831 36.0914 17.5819H24.8819V6.37239C24.8819 5.8769 24.6851 5.40171 24.3347 5.05135C23.9844 4.70098 23.5092 4.50415 23.0137 4.50415C22.5182 4.50415 22.043 4.70098 21.6926 5.05135C21.3423 5.40171 21.1454 5.8769 21.1454 6.37239V8.24064H9.93598C9.65536 8.24193 9.37863 8.30642 9.12636 8.42933C8.87408 8.55223 8.65273 8.73039 8.47875 8.95057L4.74226 13.6212C4.48162 13.951 4.33984 14.3591 4.33984 14.7795C4.33984 15.1999 4.48162 15.608 4.74226 15.9378L8.47875 20.6084C8.65273 20.8286 8.87408 21.0067 9.12636 21.1297C9.37863 21.2526 9.65536 21.317 9.93598 21.3183H21.1454V38.1325H17.409C16.9135 38.1325 16.4383 38.3294 16.0879 38.6797C15.7375 39.0301 15.5407 39.5053 15.5407 40.0008C15.5407 40.4963 15.7375 40.9715 16.0879 41.3218C16.4383 41.6722 16.9135 41.869 17.409 41.869H28.6184C29.1139 41.869 29.5891 41.6722 29.9395 41.3218C30.2898 40.9715 30.4867 40.4963 30.4867 40.0008C30.4867 39.5053 30.2898 39.0301 29.9395 38.6797C29.5891 38.3294 29.1139 38.1325 28.6184 38.1325H24.8819V30.6596H36.0914C36.372 30.6583 36.6487 30.5938 36.901 30.4709C37.1533 30.348 37.3746 30.1698 37.5486 29.9496L41.2851 25.279C41.5457 24.9492 41.6875 24.5411 41.6875 24.1207C41.6875 23.7003 41.5457 23.2922 41.2851 22.9624ZM21.1454 17.5819H10.8327L8.59084 14.7795L10.8327 11.9771H21.1454V17.5819ZM35.1946 26.9231H24.8819V21.3183H35.1946L37.4365 24.1207L35.1946 26.9231Z" fill="#52005D"/>
</svg>
