<svg width="45" height="46" viewBox="0 0 45 46" fill="none" xmlns="http://www.w3.org/2000/svg">
<path d="M26.8825 27.2947C25.6336 28.3016 24.0777 28.8507 22.4735 28.8507C20.8692 28.8507 19.3133 28.3016 18.0644 27.2947C17.6829 26.9775 17.191 26.825 16.697 26.8705C16.203 26.9161 15.7473 27.156 15.4302 27.5375C15.1131 27.9191 14.9605 28.4109 15.006 28.9049C15.0516 29.399 15.2915 29.8546 15.673 30.1718C17.5812 31.7646 19.9879 32.6372 22.4735 32.6372C24.959 32.6372 27.3658 31.7646 29.2739 30.1718C29.6554 29.8546 29.8953 29.399 29.9409 28.9049C29.9864 28.4109 29.8338 27.9191 29.5167 27.5375C29.3597 27.3486 29.167 27.1925 28.9497 27.078C28.7323 26.9636 28.4945 26.8931 28.2499 26.8705C27.7559 26.825 27.264 26.9775 26.8825 27.2947ZM17.2611 20.4008C17.6111 20.7488 18.0846 20.9441 18.5782 20.9441C19.0717 20.9441 19.5452 20.7488 19.8953 20.4008C20.2432 20.0508 20.4386 19.5773 20.4386 19.0837C20.4386 18.5902 20.2432 18.1167 19.8953 17.7666C18.8261 16.7521 17.4085 16.1866 15.9346 16.1866C14.4608 16.1866 13.0431 16.7521 11.9739 17.7666C11.7784 17.9341 11.6195 18.1402 11.5074 18.372C11.3952 18.6038 11.3322 18.8562 11.3223 19.1135C11.3124 19.3708 11.3557 19.6274 11.4496 19.8671C11.5436 20.1069 11.686 20.3246 11.8681 20.5067C12.0502 20.6887 12.2679 20.8312 12.5076 20.9251C12.7474 21.0191 13.004 21.0624 13.2612 21.0525C13.5185 21.0425 13.771 20.9795 14.0028 20.8674C14.2346 20.7553 14.4407 20.5964 14.6082 20.4008C14.7818 20.2257 14.9885 20.0867 15.2161 19.9919C15.4438 19.8971 15.688 19.8482 15.9346 19.8482C16.1812 19.8482 16.4254 19.8971 16.6531 19.9919C16.8808 20.0867 17.0874 20.2257 17.2611 20.4008ZM32.973 17.7666C31.9038 16.7521 30.4862 16.1866 29.0123 16.1866C27.5385 16.1866 26.1208 16.7521 25.0516 17.7666C24.7456 18.124 24.5856 18.5837 24.6038 19.0539C24.622 19.5241 24.8169 19.9702 25.1496 20.3029C25.4823 20.6356 25.9283 20.8305 26.3985 20.8487C26.8687 20.8668 27.3285 20.7069 27.6859 20.4008C27.8595 20.2257 28.0662 20.0867 28.2938 19.9919C28.5215 19.8971 28.7657 19.8482 29.0123 19.8482C29.2589 19.8482 29.5031 19.8971 29.7308 19.9919C29.9585 20.0867 30.1651 20.2257 30.3388 20.4008C30.6888 20.7488 31.1623 20.9441 31.6559 20.9441C32.1494 20.9441 32.6229 20.7488 32.973 20.4008C33.3209 20.0508 33.5163 19.5773 33.5163 19.0837C33.5163 18.5902 33.3209 18.1167 32.973 17.7666ZM22.4735 4.44604C18.7784 4.44604 15.1664 5.54175 12.0941 7.5946C9.02174 9.64745 6.62717 12.5653 5.21314 15.979C3.79911 19.3928 3.42914 23.1492 4.15 26.7732C4.87087 30.3973 6.6502 33.7262 9.26298 36.339C11.8758 38.9517 15.2047 40.7311 18.8287 41.4519C22.4527 42.1728 26.2091 41.8028 29.6229 40.3888C33.0367 38.9748 35.9545 36.5802 38.0073 33.5079C40.0602 30.4356 41.1559 26.8235 41.1559 23.1285C41.1559 20.6751 40.6727 18.2457 39.7338 15.979C38.7949 13.7124 37.4188 11.6528 35.6839 9.918C33.9491 8.18318 31.8896 6.80704 29.6229 5.86816C27.3563 4.92928 24.9269 4.44604 22.4735 4.44604ZM22.4735 38.0744C19.5174 38.0744 16.6278 37.1979 14.1699 35.5556C11.7121 33.9133 9.79643 31.5791 8.6652 28.848C7.53398 26.117 7.238 23.1119 7.81469 20.2127C8.39139 17.3134 9.81485 14.6503 11.9051 12.5601C13.9953 10.4699 16.6584 9.04641 19.5576 8.46971C22.4569 7.89302 25.462 8.189 28.193 9.32022C30.924 10.4514 33.2583 12.3671 34.9006 14.825C36.5428 17.2828 37.4194 20.1724 37.4194 23.1285C37.4194 27.0924 35.8447 30.8939 33.0418 33.6969C30.2389 36.4998 26.4374 38.0744 22.4735 38.0744Z" fill="#52005D"/>
</svg>
