<svg width="45" height="46" viewBox="0 0 45 46" fill="none" xmlns="http://www.w3.org/2000/svg">
<path d="M41.2631 18.7172C41.1451 18.3755 40.9305 18.0753 40.6453 17.8532C40.3602 17.631 40.0166 17.4963 39.6564 17.4655L29.0261 15.9149L24.2621 6.25604C24.1091 5.94018 23.8703 5.67379 23.5729 5.4874C23.2755 5.30101 22.9316 5.20215 22.5807 5.20215C22.2297 5.20215 21.8859 5.30101 21.5885 5.4874C21.2911 5.67379 21.0522 5.94018 20.8993 6.25604L16.1352 15.8962L5.50494 17.4655C5.15917 17.5146 4.8341 17.6597 4.56662 17.8843C4.29914 18.1088 4.09995 18.4039 3.99167 18.7359C3.89255 19.0604 3.88365 19.4057 3.96594 19.7348C4.04822 20.064 4.21858 20.3645 4.45873 20.6042L12.1746 28.0771L10.3063 38.6887C10.2396 39.039 10.2746 39.401 10.407 39.7321C10.5394 40.0631 10.7638 40.3494 11.0536 40.557C11.3361 40.759 11.6694 40.8782 12.0159 40.9013C12.3624 40.9244 12.7085 40.8504 13.0153 40.6878L22.5807 35.6996L32.1087 40.7065C32.3709 40.8544 32.6671 40.9316 32.9681 40.9306C33.3639 40.932 33.7498 40.8078 34.0704 40.5757C34.3602 40.368 34.5846 40.0818 34.717 39.7508C34.8495 39.4197 34.8844 39.0577 34.8177 38.7074L32.9494 28.0958L40.6653 20.6228C40.935 20.3943 41.1344 20.0939 41.2402 19.7566C41.346 19.4193 41.354 19.0589 41.2631 18.7172ZM29.7734 26.1902C29.5543 26.4021 29.3904 26.6644 29.296 26.9543C29.2015 27.2441 29.1794 27.5526 29.2316 27.8529L30.5768 35.6809L23.5522 31.9444C23.2819 31.8005 22.9803 31.7252 22.6741 31.7252C22.3679 31.7252 22.0663 31.8005 21.796 31.9444L14.7714 35.6809L16.1166 27.8529C16.1688 27.5526 16.1467 27.2441 16.0522 26.9543C15.9578 26.6644 15.7939 26.4021 15.5748 26.1902L9.97005 20.5855L17.8354 19.4458C18.138 19.4037 18.4257 19.2881 18.6733 19.1089C18.9208 18.9298 19.1206 18.6926 19.2552 18.4183L22.5807 11.3003L26.093 18.437C26.2276 18.7113 26.4274 18.9484 26.6749 19.1276C26.9225 19.3067 27.2102 19.4224 27.5128 19.4645L35.3782 20.6042L29.7734 26.1902Z" fill="#52005D"/>
</svg>
