<svg width="45" height="46" viewBox="0 0 45 46" fill="none" xmlns="http://www.w3.org/2000/svg">
<path d="M10.6188 32.5859L9.29231 33.9124C8.94435 34.2624 8.74904 34.7359 8.74904 35.2295C8.74904 35.723 8.94435 36.1965 9.29231 36.5466C9.64235 36.8945 10.1159 37.0899 10.6094 37.0899C11.103 37.0899 11.5765 36.8945 11.9265 36.5466L13.253 35.2201C13.5591 34.8627 13.719 34.403 13.7008 33.9328C13.6827 33.4626 13.4877 33.0166 13.155 32.6839C12.8223 32.3511 12.3763 32.1562 11.9061 32.1381C11.4359 32.1199 10.9762 32.2798 10.6188 32.5859ZM9.42309 23.2447C9.42309 22.7492 9.22626 22.274 8.87589 21.9236C8.52553 21.5733 8.05034 21.3764 7.55485 21.3764H5.6866C5.19111 21.3764 4.71592 21.5733 4.36556 21.9236C4.01519 22.274 3.81836 22.7492 3.81836 23.2447C3.81836 23.7402 4.01519 24.2154 4.36556 24.5657C4.71592 24.9161 5.19111 25.1129 5.6866 25.1129H7.55485C8.05034 25.1129 8.52553 24.9161 8.87589 24.5657C9.22626 24.2154 9.42309 23.7402 9.42309 23.2447ZM22.5008 10.167C22.9963 10.167 23.4715 9.97015 23.8218 9.61979C24.1722 9.26943 24.369 8.79423 24.369 8.29874V6.4305C24.369 5.93501 24.1722 5.45982 23.8218 5.10945C23.4715 4.75909 22.9963 4.56226 22.5008 4.56226C22.0053 4.56226 21.5301 4.75909 21.1797 5.10945C20.8294 5.45982 20.6326 5.93501 20.6326 6.4305V8.29874C20.6326 8.79423 20.8294 9.26943 21.1797 9.61979C21.5301 9.97015 22.0053 10.167 22.5008 10.167ZM10.6188 13.9969C10.9667 14.342 11.4364 14.5366 11.9265 14.5387C12.1724 14.5401 12.4161 14.493 12.6438 14.4C12.8714 14.307 13.0784 14.17 13.253 13.9969C13.601 13.6468 13.7963 13.1733 13.7963 12.6798C13.7963 12.1862 13.601 11.7127 13.253 11.3627L11.9265 10.0362C11.5691 9.73014 11.1094 9.57021 10.6392 9.58837C10.169 9.60653 9.723 9.80145 9.39028 10.1342C9.05755 10.4669 8.86263 10.9129 8.84447 11.3831C8.82631 11.8533 8.98624 12.313 9.29231 12.6704L10.6188 13.9969ZM33.0377 14.5387C33.5278 14.5366 33.9975 14.342 34.3455 13.9969L35.6719 12.6704C35.8675 12.503 36.0263 12.2968 36.1385 12.0651C36.2506 11.8333 36.3136 11.5808 36.3236 11.3235C36.3335 11.0662 36.2901 10.8097 36.1962 10.5699C36.1023 10.3302 35.9598 10.1124 35.7777 9.93037C35.5957 9.7483 35.3779 9.60584 35.1382 9.51191C34.8985 9.41798 34.6419 9.37463 34.3846 9.38457C34.1273 9.39451 33.8748 9.45752 33.6431 9.56966C33.4113 9.6818 33.2052 9.84064 33.0377 10.0362L31.842 11.3627C31.494 11.7127 31.2987 12.1862 31.2987 12.6798C31.2987 13.1733 31.494 13.6468 31.842 13.9969C32.1714 14.3245 32.611 14.5177 33.0751 14.5387H33.0377ZM39.315 21.3764H37.4467C36.9513 21.3764 36.4761 21.5733 36.1257 21.9236C35.7753 22.274 35.5785 22.7492 35.5785 23.2447C35.5785 23.7402 35.7753 24.2154 36.1257 24.5657C36.4761 24.9161 36.9513 25.1129 37.4467 25.1129H39.315C39.8105 25.1129 40.2857 24.9161 40.636 24.5657C40.9864 24.2154 41.1832 23.7402 41.1832 23.2447C41.1832 22.7492 40.9864 22.274 40.636 21.9236C40.2857 21.5733 39.8105 21.3764 39.315 21.3764ZM22.5008 36.3224C22.0053 36.3224 21.5301 36.5192 21.1797 36.8696C20.8294 37.22 20.6326 37.6951 20.6326 38.1906V40.0589C20.6326 40.5544 20.8294 41.0296 21.1797 41.3799C21.5301 41.7303 22.0053 41.9271 22.5008 41.9271C22.9963 41.9271 23.4715 41.7303 23.8218 41.3799C24.1722 41.0296 24.369 40.5544 24.369 40.0589V38.1906C24.369 37.6951 24.1722 37.22 23.8218 36.8696C23.4715 36.5192 22.9963 36.3224 22.5008 36.3224ZM34.3828 32.5859C34.0279 32.3885 33.6183 32.3121 33.216 32.3683C32.8138 32.4246 32.4408 32.6103 32.1536 32.8975C31.8664 33.1847 31.6807 33.5577 31.6244 33.9599C31.5682 34.3622 31.6446 34.7718 31.842 35.1267L33.1685 36.4532C33.5185 36.8011 33.992 36.9964 34.4856 36.9964C34.9791 36.9964 35.4527 36.8011 35.8027 36.4532C36.1507 36.1031 36.346 35.6296 36.346 35.1361C36.346 34.6425 36.1507 34.169 35.8027 33.8189L34.3828 32.5859ZM22.5008 12.9694C20.4685 12.9694 18.4819 13.572 16.7921 14.7011C15.1024 15.8301 13.7853 17.4349 13.0076 19.3125C12.2299 21.1901 12.0264 23.2561 12.4229 25.2493C12.8194 27.2425 13.798 29.0734 15.235 30.5105C16.6721 31.9475 18.503 32.9261 20.4962 33.3226C22.4894 33.7191 24.5554 33.5156 26.433 32.7379C28.3106 31.9601 29.9154 30.6431 31.0444 28.9534C32.1735 27.2636 32.7761 25.277 32.7761 23.2447C32.7712 20.521 31.687 17.9103 29.7611 15.9844C27.8352 14.0585 25.2245 12.9743 22.5008 12.9694ZM22.5008 29.7835C21.2075 29.7835 19.9433 29.4 18.868 28.6815C17.7927 27.963 16.9546 26.9418 16.4597 25.747C15.9648 24.5522 15.8353 23.2374 16.0876 21.969C16.3399 20.7006 16.9627 19.5355 17.8771 18.621C18.7916 17.7065 19.9567 17.0838 21.2251 16.8315C22.4935 16.5792 23.8083 16.7087 25.0031 17.2036C26.1979 17.6985 27.2192 18.5366 27.9377 19.6119C28.6561 20.6872 29.0396 21.9514 29.0396 23.2447C29.0396 24.9789 28.3507 26.6421 27.1245 27.8684C25.8982 29.0946 24.235 29.7835 22.5008 29.7835Z" fill="#52005D"/>
</svg>
