<svg width="46" height="46" viewBox="0 0 46 46" fill="none" xmlns="http://www.w3.org/2000/svg">
<path d="M20.1289 29.3724V11.1009C20.1289 10.6055 19.932 10.1303 19.5817 9.7799C19.2313 9.42953 18.7561 9.2327 18.2606 9.2327C17.7651 9.2327 17.2899 9.42953 16.9396 9.7799C16.5892 10.1303 16.3924 10.6055 16.3924 11.1009V29.3724C15.8277 29.6984 15.3581 30.1665 15.0303 30.7303C14.7026 31.294 14.5281 31.9337 14.5241 32.5857C14.5241 33.5767 14.9178 34.5271 15.6185 35.2278C16.3193 35.9286 17.2696 36.3222 18.2606 36.3222C19.2516 36.3222 20.202 35.9286 20.9027 35.2278C21.6034 34.5271 21.9971 33.5767 21.9971 32.5857C21.9932 31.9337 21.8187 31.294 21.4909 30.7303C21.1632 30.1665 20.6936 29.6984 20.1289 29.3724ZM36.9431 5.49621H36.0089V4.56209C36.0089 4.0666 35.8121 3.59141 35.4617 3.24104C35.1114 2.89068 34.6362 2.69385 34.1407 2.69385C33.6452 2.69385 33.17 2.89068 32.8196 3.24104C32.4693 3.59141 32.2724 4.0666 32.2724 4.56209V5.49621H31.3383C30.8428 5.49621 30.3676 5.69304 30.0173 6.04341C29.6669 6.39377 29.4701 6.86897 29.4701 7.36446C29.4701 7.85994 29.6669 8.33514 30.0173 8.6855C30.3676 9.03587 30.8428 9.2327 31.3383 9.2327H32.2724V10.1668C32.2724 10.6623 32.4693 11.1375 32.8196 11.4879C33.17 11.8382 33.6452 12.0351 34.1407 12.0351C34.6362 12.0351 35.1114 11.8382 35.4617 11.4879C35.8121 11.1375 36.0089 10.6623 36.0089 10.1668V9.2327H36.9431C37.4385 9.2327 37.9137 9.03587 38.2641 8.6855C38.6145 8.33514 38.8113 7.85994 38.8113 7.36446C38.8113 6.86897 38.6145 6.39377 38.2641 6.04341C37.9137 5.69304 37.4385 5.49621 36.9431 5.49621ZM26.6677 11.1009C26.6677 8.87124 25.782 6.73287 24.2053 5.15623C22.6287 3.57959 20.4903 2.69385 18.2606 2.69385C16.0309 2.69385 13.8925 3.57959 12.3159 5.15623C10.7393 6.73287 9.85353 8.87124 9.85353 11.1009V25.1128C8.56228 26.576 7.67539 28.3509 7.2806 30.2621C6.88581 32.1732 6.9968 34.1543 7.60258 36.0094C8.20836 37.8645 9.28795 39.5293 10.7345 40.8391C12.1812 42.149 13.9446 43.0584 15.8506 43.4776C16.6362 43.6569 17.4367 43.7632 18.2419 43.7952C20.4119 43.8089 22.5391 43.1926 24.3656 42.0209C26.192 40.8492 27.6391 39.1725 28.5312 37.1944C29.4233 35.2163 29.7221 33.0218 29.3913 30.8772C29.0605 28.7326 28.1144 26.7301 26.6677 25.1128V11.1009ZM22.9312 38.396C21.9472 39.196 20.7758 39.7325 19.5272 39.9549C18.2787 40.1772 16.9941 40.0782 15.7944 39.6671C14.5946 39.256 13.5193 38.5463 12.6695 37.6049C11.8198 36.6634 11.2236 35.5213 10.9371 34.2858C10.6485 33.037 10.6859 31.7349 11.0458 30.5047C11.4057 29.2745 12.076 28.1576 12.9922 27.2612C13.1687 27.0882 13.3091 26.8819 13.4053 26.6542C13.5016 26.4265 13.5516 26.182 13.5526 25.9348V11.1009C13.5526 9.86222 14.0447 8.67423 14.9206 7.79832C15.7965 6.92241 16.9845 6.43033 18.2233 6.43033C19.462 6.43033 20.65 6.92241 21.5259 7.79832C22.4018 8.67423 22.8939 9.86222 22.8939 11.1009V25.9348C22.8949 26.182 22.945 26.4265 23.0412 26.6542C23.1374 26.8819 23.2778 27.0882 23.4543 27.2612C24.218 27.999 24.8157 28.891 25.2075 29.8778C25.5994 30.8646 25.7765 31.9236 25.727 32.9842C25.6775 34.0449 25.4026 35.0828 24.9205 36.0288C24.4384 36.9749 23.7603 37.8073 22.9312 38.4707V38.396Z" fill="#52005D"/>
</svg>
