<svg width="46" height="46" viewBox="0 0 46 46" fill="none" xmlns="http://www.w3.org/2000/svg">
<path d="M22.4053 31.6518H20.0514L21.658 28.8494C21.7932 28.6368 21.884 28.399 21.9249 28.1503C21.9658 27.9017 21.9559 27.6474 21.896 27.4027C21.8361 27.1579 21.7272 26.9278 21.5761 26.7263C21.4249 26.5247 21.2345 26.3558 21.0164 26.2297C20.7982 26.1036 20.5568 26.0229 20.3067 25.9925C20.0566 25.9621 19.8029 25.9827 19.5609 26.0529C19.3189 26.1231 19.0936 26.2415 18.8986 26.401C18.7035 26.5606 18.5428 26.7579 18.426 26.9812L15.1939 32.5859C15.0304 32.8691 14.9441 33.1902 14.9436 33.5172C14.9431 33.8442 15.0284 34.1656 15.1911 34.4493C15.3537 34.733 15.588 34.969 15.8704 35.1338C16.1529 35.2985 16.4736 35.3863 16.8006 35.3883H19.1733L17.5853 38.1906C17.3375 38.6217 17.2712 39.1335 17.4008 39.6135C17.5304 40.0935 17.8454 40.5024 18.2765 40.7501C18.7076 40.9979 19.2194 41.0642 19.6994 40.9346C20.1794 40.8049 20.5883 40.4899 20.836 40.0589L24.0681 34.4541C24.232 34.1701 24.3184 33.848 24.3184 33.52C24.3184 33.1921 24.232 32.8699 24.0681 32.5859C23.9004 32.2952 23.6575 32.055 23.3649 31.8907C23.0723 31.7263 22.7408 31.6438 22.4053 31.6518ZM41.312 14.9684C41.0869 14.7473 40.8096 14.5868 40.5057 14.5019C40.2019 14.4169 39.8816 14.4103 39.5745 14.4826C39.1698 14.5751 38.7565 14.6252 38.3415 14.6321C36.855 14.6321 35.4294 14.0416 34.3783 12.9905C33.3272 11.9394 32.7367 10.5138 32.7367 9.02734C32.7421 8.61831 32.7922 8.2111 32.8862 7.81298C32.9604 7.50459 32.9549 7.18237 32.8702 6.8767C32.7854 6.57103 32.6242 6.29197 32.4018 6.06582C32.1794 5.83966 31.9031 5.67386 31.5989 5.58404C31.2946 5.49422 30.9726 5.48333 30.663 5.5524C28.8036 5.96293 27.1171 6.93968 25.8357 8.34822C24.5543 9.75677 23.7409 11.5279 23.5076 13.4177C22.4927 13.1277 21.4431 12.9769 20.3876 12.9693C17.6952 12.9678 15.0922 13.9354 13.0545 15.6952C11.0169 17.455 9.68067 19.8895 9.29027 22.5534C7.96702 22.9158 6.79178 23.6863 5.93186 24.7554C5.07193 25.8244 4.57114 27.1375 4.50077 28.5076C4.4304 29.8778 4.79404 31.2353 5.53991 32.3868C6.28579 33.5383 7.3759 34.4252 8.65507 34.9212C8.88721 35.0315 9.13962 35.0927 9.3965 35.101C9.65338 35.1093 9.90921 35.0645 10.148 34.9694C10.3868 34.8744 10.6034 34.731 10.7842 34.5484C10.9651 34.3658 11.1063 34.1478 11.1991 33.9082C11.2919 33.6685 11.3342 33.4122 11.3235 33.1554C11.3127 32.8986 11.249 32.6468 11.1365 32.4158C11.024 32.1847 10.865 31.9793 10.6695 31.8125C10.4739 31.6457 10.2461 31.521 10.0002 31.4463C9.39833 31.2021 8.89995 30.7565 8.59026 30.1856C8.28057 29.6147 8.1788 28.9539 8.30236 28.3163C8.42591 27.6786 8.76712 27.1037 9.26764 26.6898C9.76817 26.2759 10.3969 26.0487 11.0464 26.047C11.5419 26.047 12.0171 25.8502 12.3675 25.4998C12.7178 25.1495 12.9147 24.6743 12.9147 24.1788C12.9147 22.1968 13.702 20.2961 15.1034 18.8946C16.5049 17.4931 18.4057 16.7058 20.3876 16.7058C21.8373 16.7047 23.2548 17.1338 24.4604 17.9389C25.8185 18.8322 26.8482 20.144 27.3936 21.6753C27.5003 21.9964 27.6923 22.2824 27.949 22.5028C28.2056 22.7233 28.5173 22.8699 28.8508 22.9271C29.8174 23.0982 30.6979 23.5911 31.3491 24.3256C32.0003 25.0602 32.3842 25.9933 32.4383 26.9735C32.4924 27.9537 32.2135 28.9234 31.6471 29.7252C31.0806 30.527 30.2598 31.1137 29.3178 31.3902C28.8224 31.4571 28.3737 31.7181 28.0707 32.1157C27.7676 32.5134 27.6349 33.0152 27.7018 33.5107C27.7687 34.0062 28.0297 34.4548 28.4273 34.7578C28.825 35.0609 29.3268 35.1936 29.8223 35.1267C29.9893 35.1539 30.1596 35.1539 30.3267 35.1267C32.0389 34.655 33.5484 33.633 34.6221 32.2182C35.6958 30.8035 36.2741 29.0748 36.2677 27.2988C36.275 25.9969 35.9605 24.7133 35.3523 23.5623C36.9567 23.1142 38.4099 22.2403 39.5578 21.0332C40.7058 19.826 41.5056 18.3307 41.8724 16.7058C41.9354 16.3925 41.917 16.0682 41.8189 15.764C41.7207 15.4598 41.5462 15.1858 41.312 14.9684ZM32.7367 20.2368C32.4756 20.2579 32.2132 20.2579 31.9521 20.2368C31.5441 19.9573 31.1128 19.7135 30.663 19.5082C29.8973 17.8302 28.7294 16.3671 27.2628 15.2486C27.2628 15.0244 27.2628 14.7815 27.2628 14.5573C27.2627 13.7478 27.438 12.9478 27.7767 12.2125C28.1153 11.4772 28.6092 10.8239 29.2244 10.2977C29.5137 12.2909 30.4394 14.1372 31.8636 15.5613C33.2877 16.9854 35.134 17.9111 37.1271 18.2004C36.5939 18.8463 35.9228 19.3645 35.163 19.7169C34.4033 20.0693 33.5742 20.247 32.7367 20.2368Z" fill="#52005D"/>
</svg>
